<svg width="1280" height="128" viewBox="0 0 1280 128" fill="none" xmlns="http://www.w3.org/2000/svg" role="img" aria-label="Abstract warm color study">
  <defs>
    <linearGradient id="base" x1="0" y1="0" x2="1280" y2="128" gradientUnits="userSpaceOnUse">
      <stop stop-color="#181E2A"/>
      <stop offset=".5" stop-color="#242034"/>
      <stop offset="1" stop-color="#221D25"/>
    </linearGradient>
    <filter id="blur" x="-20%" y="-80%" width="140%" height="260%">
      <feGaussianBlur stdDeviation="18"/>
    </filter>
    <pattern id="grain" width="11" height="11" patternUnits="userSpaceOnUse">
      <circle cx="1" cy="1" r=".6" fill="#F3E1B7" fill-opacity=".18"/>
    </pattern>
  </defs>
  <rect width="1280" height="128" fill="url(#base)"/>
  <path d="M-75 115C126 30 225 178 426 93C609 16 732 143 919 74C1051 25 1157 48 1355 -4V152H-75V115Z" fill="#D54D35" fill-opacity=".82" filter="url(#blur)"/>
  <path d="M-11 116C202 51 281 157 484 99C686 41 724 131 937 81C1077 48 1162 85 1290 31" stroke="#F0C671" stroke-opacity=".86" stroke-width="3"/>
  <path d="M0 98C194 32 294 148 471 84C641 22 756 123 943 65C1088 20 1174 58 1280 18" stroke="#FFF1CA" stroke-opacity=".52" stroke-width="1"/>
  <rect width="1280" height="128" fill="url(#grain)"/>
  <path d="M0 127.5H1280" stroke="#F8E8C3" stroke-opacity=".18"/>
</svg>
