<svg width="1280" height="216" viewBox="0 0 1280 216" fill="none" xmlns="http://www.w3.org/2000/svg" role="img" aria-labelledby="title desc">
  <title id="title">JasperVoice</title>
  <desc id="desc">A link to a Windows push-to-talk voice dictation project.</desc>
  <defs>
    <linearGradient id="base" x1="0" y1="0" x2="1280" y2="216" gradientUnits="userSpaceOnUse">
      <stop stop-color="#171C27"/>
      <stop offset="1" stop-color="#10151E"/>
    </linearGradient>
    <linearGradient id="signal" x1="782" y1="35" x2="1164" y2="176" gradientUnits="userSpaceOnUse">
      <stop stop-color="#FFCB75"/>
      <stop offset="1" stop-color="#D95640"/>
    </linearGradient>
  </defs>
  <rect width="1280" height="216" fill="url(#base)"/>
  <path d="M0 171H1280M0 44H1280M701 0V216" stroke="#F6EAD2" stroke-opacity=".1"/>
  <rect x="58" y="48" width="6" height="120" rx="3" fill="#D95640"/>
  <text x="94" y="79" fill="#F6EAD2" font-family="ui-monospace, SFMono-Regular, Consolas, monospace" font-size="15" letter-spacing="2">CURRENTLY SHIPPING</text>
  <text x="94" y="124" fill="#F6EAD2" font-family="ui-monospace, SFMono-Regular, Consolas, monospace" font-size="39" font-weight="700">JasperVoice</text>
  <text x="96" y="151" fill="#C6CCD7" font-family="ui-monospace, SFMono-Regular, Consolas, monospace" font-size="16">push-to-talk voice dictation for Windows</text>
  <text x="96" y="190" fill="#E2A350" font-family="ui-monospace, SFMono-Regular, Consolas, monospace" font-size="13" letter-spacing="1.3">PYTHON  /  WHISPER  /  GLOBAL HOTKEYS</text>
  <text x="759" y="54" fill="#AEB6C4" font-family="ui-monospace, SFMono-Regular, Consolas, monospace" font-size="13" letter-spacing="1.5">SPEAK → WRITE</text>
  <path d="M769 127H790L803 93L817 158L831 112L846 139L860 75L877 149L892 120L907 126L923 101L940 143L958 129L975 129L992 87L1010 160L1029 111L1046 133L1063 97L1081 147L1098 121L1116 125L1135 102L1152 142L1171 128" stroke="url(#signal)" stroke-width="5" stroke-linecap="round" stroke-linejoin="round"/>
  <circle cx="1204" cy="127" r="24" stroke="#F6EAD2" stroke-opacity=".55"/>
  <path d="M1196 127H1212M1204 119V135" stroke="#F6EAD2" stroke-width="2"/>
  <text x="1151" y="180" fill="#F6EAD2" font-family="ui-monospace, SFMono-Regular, Consolas, monospace" font-size="13">OPEN PROJECT</text>
</svg>
